<svg id="james_brunt" data-name="loading" xmlns="http://www.w3.org/2000/svg" viewBox="0 0 1665.3 84.33" style=""><defs><style>.cls-1{fill:none;stroke:#000;stroke-linecap:round;stroke-linejoin:round;stroke-width:2.5px;}</style></defs><title>loading</title><path class="cls-1 KlqjrgxK_0" d="M113.83,45.27c-1.44,3.12.13,9.19-1.42,12.79l-.68.2c1.93,2.84-1.34,7.53-.2,13.18h.69c-2.54,3.79-2.43,11-5.28,15.63h-.73c-.35,3.06-4.39,8.83-8.5,10.59v-.29c-5,5-13.73,1.87-20.16,4.3-1-1.54-4.77-2.4-7.62-1.22C68.51,97,61.7,99.14,58.21,95.37c3.08-.59,14.68,2.43,19.34,3.61.78-.54,2.5-.51,4.39.2,3.52-2,8.2.28,16.41-4.4,3.58-3.55,5-12.31,8.06-14.31-.81-1.78.51-3,.24-6,1.16.48.79-2.44,1-3.91,2.59-12.1,1.39-29-.12-43.57,1.23-10.58,7.48,2.06,5,7.29C114.56,35.21,112.14,42.52,113.83,45.27Z" transform="translate(-56.96 -18.58)"></path><path class="cls-1 KlqjrgxK_1" d="M274.17,75.88c-8.6,7.63-5.89-9.84-7.42-15.33l.88-.49c-.75-.13-.16-1.77,0-3.41h.53c1.43-17.73-21.08,37.18-29.39,15.91.32-4.53.57-14.05,2.39-19.58-.35-.22-1.53-.82.29-1.12-.85-.37,2.2-2.83.59-3.61,1.71-2.2,1.65-4.8,3-8.3.17-.06-1.06-.94.29-1.27.2-2.61-.63-1.34,4.3-7.23a15.75,15.75,0,0,1,14.6.83l.49-.19c.36,1.44,4.05.79,4.58,3.07A14.61,14.61,0,0,1,273,33.55v1.61h-.49l1,.49c-.12,8.13-4.08,18.61-3,27.64-1.68,2,.28,2-1.13,7.27,1.46,1.8,2.12.66,4.3,4.3C273.14,75.07,273.2,74.81,274.17,75.88ZM269,40c-3.24-5.05-9.63-7.68-16.89-5l.19.39c-2.1.49-6.82,6.06-5.51,10.1-1.67,3.59-4.47,10.33-4,16.7-1.58,1-4.69,16.85,4.69,9.53l-.2-.74c1.35.18,3.12-2.47,5-4.49H252c1.72-2,6.07-4.52,6.89-8l.92-.19c.07,0-1.07-.95,2-3C264.59,50.9,268,46.83,269,40Z" transform="translate(-56.96 -18.58)"></path><path class="cls-1 KlqjrgxK_2" d="M477.38,68.27c-1.86,1-2.21,5.53-5.71,5.27.43,1.72-2.88,2.64-9.33,1.61-5.22-5.94-6.48-17.92-6.69-27.68-6.77,9.42-10.21,17.59-18.7,28.61-10,5.63-3.14-27.85-7.83-35.23-3.76-3.1-12,12.45-20.88,28.93-10.4,17.69-7.89-6.18-6.44-20.58-1.23-5.42-2.05-24.3,3.17-9.06-1.38,9.3-.64,17.52-1.9,27.74,3.58,1.25,6.39-11.73,21.09-29.3.63-.29,4.91-6.13,5.91-1.32,8.15,1.54-2.78,51,11.4,27.22.3,1.33,13-27.25,19-25.9l-.49.49.68.68c-.08.18-1.34.34-.29,1.42-2.74,7.88-3.39,44.31,14.94,26.51C475.44,67.05,477.38,65.25,477.38,68.27Z" transform="translate(-56.96 -18.58)"></path><path class="cls-1 KlqjrgxK_3" d="M621,67.78c3.11,11.51-37.79,28.66-24.9-15-1-1.84-.56-3.72-.39-7.47.91.59.71,1.28,3.22.49-.16-1.8,1.08-2.11,3.81-8.5,2.34-.87,7.64-11.42,14.5-3.17l-.43.19c7.59,18.56-13.3,16.84-19.78,25.49C591.8,77,605.51,84.3,621,67.78ZM612.82,45c3.59-2.4,5.94-15.36-5.08-7.72-3.93,2.89-4,6.27-8.2,12.5C601.48,53.11,609.05,49.09,612.82,45Z" transform="translate(-56.96 -18.58)"></path><path class="cls-1 KlqjrgxK_4" d="M773.55,69.05c-.3.36-2.2,3.48-3.32,5.42-2.29,1.12-6.31,1.73-9.08,3.17-6.57-.28-11.93.86-19.82-.78-2.3.72-7.9-3-2.49-6.49.19-.22-.33.73.88.58v.49c-.07-.08,2.44-1.23,1.41,1.12.79.93,2,1.65,4.4,2.89,9.79-1.77,14.68-.49,23.39-4.5,3.38-3.8-5.53-8.3-12.5-8.79-9-4.55-21.45-9.6-11.87-22,3.66-6.35,29.16-11.28,20.94-1.11-3.37-8.56-41.72,10.47-8.4,19.63,6.88,2.56,10.77,2.86,15.73,8.09C772.63,67.58,772.29,67.41,773.55,69.05Z" transform="translate(-56.96 -18.58)"></path><path class="cls-1 KlqjrgxK_5" d="M1087,60.55c.06,9.83-30,17.28-47.8,17.09-3-5.26.38-11.65-1-18.41,1.2-4.53-8.38-5.56-.88-8,1.12-2.29,2.11-29-8.59-23.73-.35-.82-9.25.76-5.66-3-3.95-4.28,78.55,3.58,40,18.6-8.66,4.1-37.57,10-1.32,10.6C1069.71,55.59,1079,54,1087,60.55Zm-17.58-25.39c-1.54-1.41-5.14-2.48-7.81-3.9.5,1.46-16.14-5.26-22.12-1.62,6.83,8.1-6.68,27.15,12.65,14.21-1,1.23,13.72-4,16-6.88C1068.78,36.94,1069,36.93,1069.43,35.16Zm12.7,29.1c4.37-5.92-23.19-9.74-29.69-8-14.13-3-9.92.58-10.6,16.61C1044.72,79.08,1073.88,70.11,1082.13,64.26Z" transform="translate(-56.96 -18.58)"></path><path class="cls-1 KlqjrgxK_6" d="M1239.34,37.65c-6.56,4.53-16.09,6.34-20.11,16.9l-.49-.2c-1.21,2.59-3.9,5-3.91,9-4.06.79.39,15.86-3.61,15.09l.2.88c-5.1.83-1-16.16-2.79-23.88,2-4.21-4.9-16.36.29-19.62,4.64,4.81,0,19.16,3.72,24.7,1-3.25,3.45-8.82,7.17-11.37C1218.5,49.16,1230.57,35.32,1239.34,37.65Z" transform="translate(-56.96 -18.58)"></path><path class="cls-1 KlqjrgxK_7" d="M1399.05,72c10.79-2.42-17.24,21.32-14.7-17-3.72.48-26.24,34.9-27.93,16-3.61-.62-.35-6.37-1.9-10.79,2.56.42-2-29,4.27-22.95,1.76,3.18-6.38,45.52,5.64,32.57,5.09-3.39,9.64-8.6,14.9-13.62,1.34-2.35,4.84-5,7.12-8.11-.4.23.88-5.75,2-5.81V40.88c.77.69.47-4.2,3.56-3.81.84,9.38-7.42,18.44-5,29.88h.29C1387.73,71.46,1393.24,76.85,1399.05,72Z" transform="translate(-56.96 -18.58)"></path><path class="cls-1 KlqjrgxK_8" d="M1577,61.58c-34.37,50.46-12.08-58.21-38.38-.83-21.39,29.79-15.47,15.87-15.53-18.9.3-.34-1.65-4.91,1.79-3.45,5.14-1.28-4,40.36,3,30.58,1-3.81,4.43-2.47,6.38-9.79,5.22-2.25,6.48-13,10.35-15.14.48-.88.67-3,3.12-2.49,13.1-22.11,2.14,51.4,24.27,23.19C1572.08,64.51,1575.89,57.09,1577,61.58Z" transform="translate(-56.96 -18.58)"></path><path class="cls-1 KlqjrgxK_9" d="M1700.74,39.26c14.82.2,34.42-.48,5.08,3.91v-.59c-10.57,2.39-9.69,1.89-9.67,14.26-.5,28.63,21.22,11.31,22.46,16.7-22.51,13.12-27-8.9-24.46-28.27-1.11-2.87-6.8,1.06-8.3-5.52,11.46-2.22,9.59,3.94,8.06-15.09-1.22-.46-1-2.84.63-4.78C1701.83,18.61,1692.51,44.78,1700.74,39.26Z" transform="translate(-56.96 -18.58)"></path><style data-made-with="vivus-instant">.KlqjrgxK_0{stroke-dasharray:243 245;stroke-dashoffset:244;animation:KlqjrgxK_draw 220ms linear 0ms forwards;}.KlqjrgxK_1{stroke-dasharray:299 301;stroke-dashoffset:300;animation:KlqjrgxK_draw 271ms linear 220ms forwards;}.KlqjrgxK_2{stroke-dasharray:420 422;stroke-dashoffset:421;animation:KlqjrgxK_draw 380ms linear 491ms forwards;}.KlqjrgxK_3{stroke-dasharray:225 227;stroke-dashoffset:226;animation:KlqjrgxK_draw 204ms linear 872ms forwards;}.KlqjrgxK_4{stroke-dasharray:225 227;stroke-dashoffset:226;animation:KlqjrgxK_draw 204ms linear 1076ms forwards;}.KlqjrgxK_5{stroke-dasharray:442 444;stroke-dashoffset:443;animation:KlqjrgxK_draw 400ms linear 1281ms forwards;}.KlqjrgxK_6{stroke-dasharray:165 167;stroke-dashoffset:166;animation:KlqjrgxK_draw 150ms linear 1681ms forwards;}.KlqjrgxK_7{stroke-dasharray:251 253;stroke-dashoffset:252;animation:KlqjrgxK_draw 227ms linear 1831ms forwards;}.KlqjrgxK_8{stroke-dasharray:276 278;stroke-dashoffset:277;animation:KlqjrgxK_draw 250ms linear 2059ms forwards;}.KlqjrgxK_9{stroke-dasharray:209 211;stroke-dashoffset:210;animation:KlqjrgxK_draw 189ms linear 2310ms forwards;}@keyframes KlqjrgxK_draw{100%{stroke-dashoffset:0;}}@keyframes KlqjrgxK_fade{0%{stroke-opacity:1;}94.02985074626866%{stroke-opacity:1;}100%{stroke-opacity:0;}}</style></svg>
