<?xml version="1.0" encoding="utf-8"?>
<!-- Generator: Adobe Illustrator 23.1.0, SVG Export Plug-In . SVG Version: 6.00 Build 0)  -->
<svg version="1.1" id="レイヤー_1" xmlns="http://www.w3.org/2000/svg" xmlns:xlink="http://www.w3.org/1999/xlink" x="0px"
	 y="0px" viewBox="0 0 190 140" style="enable-background:new 0 0 190 140;" xml:space="preserve">
<style type="text/css">
	.st0{fill:none;stroke:#000000;stroke-width:3;stroke-miterlimit:10;}
</style>
<g>
	<path class="st0" d="M88.88,91.51c14.03,6.02,19.43-20.74-5.82-16.6c-34.61,28.61,35.81,45.99,30.35,0.68
		c-12.26-26.01-67.37-9.61-51.07,25.43c20.61,43.31,86.3,14.69,70.87-36.3c1.15-23.59-89.95-7.39-125.65-11.8
		c-8.82-14.7-6.58,102.1,0.05,83.17c236.24-4.31,169.58,30.08,179.26-98.25c-1.97-2.06-52.44,4.26-47.23-2.7
		C133.87-9.98,79.02,7.43,61.2,9.29C50.97,54.62,25.16,33.07,3.29,37.62"/>
</g>
</svg>
