<?xml version="1.0" encoding="utf-8"?>
<!-- Generator: Adobe Illustrator 23.1.0, SVG Export Plug-In . SVG Version: 6.00 Build 0)  -->
<svg version="1.1" id="レイヤー_1" xmlns="http://www.w3.org/2000/svg" xmlns:xlink="http://www.w3.org/1999/xlink" x="0px"
	 y="0px" viewBox="0 0 1100 140" style="enable-background:new 0 0 1100 140;" xml:space="preserve">
<style type="text/css">
	.st0{fill:none;stroke:#000000;stroke-width:3;stroke-miterlimit:10;}
</style>
<g>
	<path class="st0" d="M945.64,99.75c20.61,43.31,86.3,14.69,70.87-36.3c1.16-23.59-89.95-7.39-125.65-11.8
		c-8.82-14.7-6.58,102.1,0.05,83.17c236.24-4.31,169.58,30.08,179.26-98.25c-1.97-2.06-52.44,4.26-47.23-2.7
		c-5.77-45.12-60.63-27.71-78.45-25.85c-3.51,15.56-8.86,23.24-15.25,26.8c-15.2,8.46-34.5,3.88-40.98,2.03
		c-0.7-0.2-1.15-0.34-1.67-0.5c-14.63-4.48-44.44-12-61.42-13.03c-27.84-1.68-27.96,13.7-60,17c-31.46,3.24-36.85-11.02-71-13
		c-40.86-2.36-42.53,17.51-87,20c-46.93,2.63-52.98-19.06-98-14c-37.98,4.27-39.55,20.37-72,20c-38.12-0.44-41.58-22.72-81-26
		c-40.86-3.4-46.57,19.77-90,18c-43.62-1.78-45.55-25.47-83-25c-49.52,0.62-61.9,42.23-102,35c-30.47-5.49-34.51-31.53-63-30"/>
</g>
</svg>
